<svg xmlns="http://www.w3.org/2000/svg" width="1080" height="1080" viewBox="0 0 1080 1080" version="1.1"><path d="M 361 320.123 C 298.507 326.423, 245.083 367.864, 226.121 424.751 C 220.241 442.391, 218.651 452.556, 218.651 472.500 C 218.651 492.949, 220.296 503.039, 226.570 521.063 C 234.413 543.596, 244.889 560.019, 262.934 578.072 C 285.782 600.932, 309.308 613.798, 342.579 621.629 C 353.711 624.249, 355.956 624.437, 376.500 624.467 C 395.528 624.496, 399.927 624.198, 409.059 622.267 C 460.348 611.421, 501.256 581.927, 539.799 528.008 C 539.992 527.738, 540.573 528.272, 541.090 529.196 C 543.826 534.085, 560.782 554.764, 569.500 563.843 C 599.694 595.290, 632.374 614.111, 670.941 622.267 C 680.073 624.198, 684.472 624.496, 703.500 624.467 C 724.044 624.437, 726.289 624.249, 737.421 621.629 C 770.831 613.765, 794.184 600.997, 817.066 578.083 C 839.643 555.476, 852.499 531.835, 859.176 500.648 C 862.303 486.044, 862.293 458.912, 859.156 444.251 C 850.235 402.565, 828.160 369.959, 792.923 346.421 C 744.916 314.353, 683.234 310.615, 629.227 336.501 C 599.116 350.933, 571.590 374.469, 547.946 406 C 544.028 411.225, 540.480 415.500, 540.062 415.500 C 539.643 415.500, 535.889 411, 531.719 405.500 C 492.392 353.626, 445.317 325.044, 391 320.062 C 378.094 318.878, 373.250 318.888, 361 320.123 M 839.655 320.459 C 827.297 324.865, 824.044 339.198, 833.239 348.731 C 839.920 355.658, 849.647 355.616, 856.632 348.632 C 859.926 345.337, 860.961 343.445, 861.525 339.685 C 862.869 330.719, 857.648 322.385, 849.219 320.044 C 844.613 318.765, 844.377 318.775, 839.655 320.459 M 839.385 324.998 C 829.555 329.961, 829.844 343.701, 839.882 348.576 C 844.771 350.951, 849.748 349.884, 853.690 345.615 C 857.882 341.076, 858.784 336.249, 856.353 331.358 C 852.718 324.044, 846.150 321.582, 839.385 324.998 M 839.422 328.344 C 839.138 329.083, 839.040 333.015, 839.203 337.083 C 839.448 343.191, 839.805 344.537, 841.250 344.813 C 842.541 345.059, 843 344.487, 843 342.632 C 843 338.868, 844.711 338.541, 846.483 341.967 C 847.426 343.791, 848.839 345, 850.026 345 C 852.321 345, 852.414 344.376, 850.608 341.116 C 849.504 339.125, 849.519 338.268, 850.698 335.903 C 851.776 333.742, 851.846 332.581, 850.994 330.989 C 849.084 327.419, 840.527 325.463, 839.422 328.344 M 843 333.500 C 843 335.482, 843.439 336.062, 844.750 335.810 C 845.712 335.624, 846.500 334.585, 846.500 333.500 C 846.500 332.415, 845.712 331.376, 844.750 331.190 C 843.439 330.938, 843 331.518, 843 333.500 M 354 376.126 C 314.290 384.422, 282.572 415.197, 274.274 453.483 C 272.200 463.053, 272.266 482.509, 274.403 491.500 C 279.209 511.726, 288.016 527.057, 303.127 541.506 C 312.704 550.664, 320.036 555.778, 330.308 560.465 C 348.465 568.751, 362.323 571.510, 381.500 570.659 C 407.227 569.518, 428.111 561.645, 450.853 544.514 C 469.267 530.642, 489.335 507.395, 503.407 483.634 C 510.856 471.056, 511.022 473.611, 501.752 458.150 C 479.508 421.054, 447.203 391.814, 416 380.537 C 397.548 373.868, 373.127 372.131, 354 376.126 M 680.500 375.993 C 664.091 379.320, 652.583 384.232, 637 394.560 C 620.878 405.245, 606.054 419.537, 592.152 437.800 C 585.724 446.244, 575.720 461.688, 572.201 468.598 L 570.115 472.695 576.595 483.637 C 593.775 512.647, 617.339 537.992, 640.799 552.694 C 669.627 570.760, 706.782 575.892, 736.242 565.875 C 753.320 560.068, 764.428 553.407, 776.873 541.506 C 791.984 527.057, 800.791 511.726, 805.597 491.500 C 807.734 482.509, 807.800 463.053, 805.726 453.483 C 798.824 421.641, 774.932 393.888, 743.649 381.376 C 725.513 374.123, 700.320 371.975, 680.500 375.993 M 683 441 L 683 457 667 457 L 651 457 651 472.500 L 651 488 667 488 L 683 488 683 504 L 683 520 698.500 520 L 714 520 714 504 L 714 488 730 488 L 746 488 746 472.500 L 746 457 730 457 L 714 457 714 441 L 714 425 698.500 425 L 683 425 683 441 M 333 472.500 L 333 488 380.500 488 L 428 488 428 472.500 L 428 457 380.500 457 L 333 457 333 472.500 M 797.054 670.509 C 789.447 672.215, 782.208 676.810, 778.071 682.559 C 772.912 689.728, 770.732 697.988, 770.219 712.302 C 769.479 732.957, 772.429 743.333, 781.473 751.886 C 788.203 758.251, 794.839 760.401, 807.500 760.321 C 832.473 760.162, 844.058 745.800, 844.188 714.837 C 844.291 690.364, 838.200 677.585, 823.881 672.229 C 816.422 669.439, 805.072 668.712, 797.054 670.509 M 263.169 671.750 C 262.673 672.712, 258.128 686.775, 253.068 703 C 248.009 719.225, 242.098 737.901, 239.934 744.501 C 237.771 751.102, 236 757.065, 236 757.751 C 236 758.674, 238.866 759, 246.961 759 L 257.923 759 259.021 754.750 C 259.625 752.413, 260.669 748.475, 261.341 746 L 262.564 741.500 275.155 741.221 L 287.746 740.942 290.102 749.971 L 292.458 759 304.336 759 C 315.238 759, 316.159 758.856, 315.542 757.250 C 315.172 756.288, 310.868 742.900, 305.976 727.500 C 301.084 712.100, 294.961 692.862, 292.368 684.750 L 287.654 670 275.862 670 C 265.642 670, 263.950 670.233, 263.169 671.750 M 330.667 670.667 C 330.300 671.033, 330 691.058, 330 715.167 L 330 759 341 759 L 352 759 352 744.950 L 352 730.900 357.540 731.200 L 363.080 731.500 369.540 745 L 376.001 758.500 389.097 758.780 L 402.193 759.059 394.937 745.280 C 390.946 737.701, 387.085 730.577, 386.356 729.449 C 385.148 727.579, 385.427 727.066, 389.524 723.642 C 391.996 721.576, 394.895 718.166, 395.968 716.064 C 399.772 708.605, 400.331 694.977, 397.164 686.861 C 395.500 682.597, 390.035 677.052, 384.966 674.483 C 382.135 673.048, 376.916 671.676, 371.902 671.047 C 362.704 669.894, 331.725 669.608, 330.667 670.667 M 417.667 670.667 C 417.300 671.033, 417 691.090, 417 715.237 L 417 759.140 438.750 758.762 C 462.997 758.341, 467.672 757.436, 475.112 751.724 C 485.441 743.796, 489.072 735.375, 489.778 717.721 C 490.547 698.472, 487.400 688.043, 478.444 680.160 C 472.599 675.015, 465.403 672.297, 454.237 671.018 C 444.405 669.891, 418.689 669.644, 417.667 670.667 M 506.406 671.384 C 506.114 672.146, 506.015 687.558, 506.187 705.634 C 506.493 737.811, 506.550 738.611, 508.889 743.788 C 514.620 756.469, 530.399 762.936, 548.483 760.015 C 560.904 758.009, 568.648 753.175, 573.338 744.500 C 575.437 740.617, 575.500 739.476, 575.500 705.500 L 575.500 670.500 565.500 670.500 L 555.500 670.500 555 702.679 C 554.523 733.368, 554.403 734.988, 552.404 737.679 C 548.274 743.239, 537.142 744.233, 532.376 739.467 C 528.522 735.613, 528.011 730.974, 528.006 699.750 L 528 670 517.469 670 C 509.421 670, 506.812 670.326, 506.406 671.384 M 596.680 670.653 C 596.306 671.027, 596 675.308, 596 680.167 L 596 689 607.500 689 L 619 689 619 715 L 619 741 607.500 741 L 596 741 596 750 L 596 759 630 759 L 664 759 664 750 L 664 741 652.500 741 L 641 741 641 715 L 641 689 652.538 689 L 664.075 689 663.788 679.750 L 663.500 670.500 630.430 670.237 C 612.241 670.092, 597.054 670.279, 596.680 670.653 M 682 714.500 L 682 759 692.500 759 L 703 759 703 731.777 C 703 708.608, 703.201 704.849, 704.351 706.527 C 705.094 707.612, 711.731 719.861, 719.101 733.746 L 732.500 758.992 743.760 758.996 L 755.021 759 754.760 714.750 L 754.500 670.500 744.750 670.214 L 735 669.928 735 695.964 C 735 710.284, 734.663 721.995, 734.250 721.988 C 733.837 721.982, 732.112 719.394, 730.417 716.238 C 728.721 713.082, 722.421 701.391, 716.417 690.257 L 705.500 670.015 693.750 670.007 L 682 670 682 714.500 M 801 688.268 C 795.025 690.371, 793.604 694.791, 793.164 712.636 C 792.576 736.517, 795.140 742.192, 806.591 742.357 C 813.093 742.451, 816.393 740.749, 818.705 736.105 C 820.232 733.039, 820.500 729.810, 820.500 714.500 C 820.500 691.329, 819.491 688.971, 809 687.616 C 806.424 687.284, 803.003 687.562, 801 688.268 M 439.427 688.906 C 439.192 689.141, 439 700.958, 439 715.167 L 439 741 446.288 741 C 455.688 741, 461.459 738.298, 464.442 732.500 C 466.220 729.044, 466.500 726.664, 466.500 715 C 466.500 703.478, 466.207 700.923, 464.500 697.565 C 461.321 691.309, 458.292 689.704, 448.433 689.049 C 443.715 688.736, 439.662 688.671, 439.427 688.906 M 352.219 701.250 L 352.500 713.500 358.212 713.799 C 370.805 714.457, 375.989 710.486, 375.996 700.173 C 375.999 695.616, 375.577 694.424, 373.077 691.923 C 370.274 689.120, 369.779 689, 361.046 689 L 351.938 689 352.219 701.250 M 270.602 707.984 C 268.621 716.297, 267 723.302, 267 723.549 C 267 723.797, 270.600 724, 275 724 C 279.400 724, 283 723.660, 283 723.245 C 283 721.946, 275.179 693.846, 274.678 693.345 C 274.417 693.084, 272.582 699.671, 270.602 707.984 M 334 819.500 L 334 852 353 852 L 372 852 372 848.500 L 372 845 357.500 845 L 343 845 343 816 L 343 787 338.500 787 L 334 787 334 819.500 M 393.020 804.250 C 388.527 806.546, 385.676 809.731, 384.515 813.750 C 383.923 815.798, 384.201 816, 387.610 816 C 390.603 816, 391.893 815.355, 394.038 812.786 C 396.489 809.850, 397.219 809.571, 402.478 809.571 C 407.528 809.571, 408.527 809.911, 410.617 812.341 C 412.257 814.247, 413 816.342, 413 819.056 L 413 823 403.234 823 C 395.651 823, 392.690 823.414, 389.984 824.852 C 379.286 830.537, 379.306 845.866, 390.020 851.248 C 393.856 853.176, 401.426 853.549, 405.473 852.010 C 406.905 851.466, 409.184 849.825, 410.538 848.364 L 413 845.708 413 848.854 C 413 851.858, 413.181 852, 417 852 L 421 852 420.996 832.250 C 420.993 814.209, 420.818 812.214, 418.976 809.192 C 414.754 802.268, 401.747 799.791, 393.020 804.250 M 449.882 805.882 L 446 809.765 446 806.382 C 446 803.103, 445.878 803, 442 803 L 438 803 438 827.500 L 438 852 441.937 852 L 445.874 852 446.187 834.070 C 446.473 817.697, 446.682 815.896, 448.597 813.334 C 452.804 807.707, 463.699 808.447, 466.006 814.517 C 466.553 815.954, 467 824.976, 467 834.565 L 467 852 471 852 L 475 852 475 832.148 C 475 813.173, 474.900 812.146, 472.730 808.898 C 469.782 804.485, 464.709 802.003, 458.632 802.002 C 454.310 802, 453.329 802.435, 449.882 805.882 M 498.990 804.250 C 492.342 808.774, 491.533 810.855, 491.186 824.319 C 490.897 835.504, 491.063 836.859, 493.211 840.895 C 494.600 843.505, 496.955 846.043, 499.009 847.145 C 505.468 850.608, 514.788 848.996, 518.439 843.783 C 519.926 841.661, 520 841.849, 520 847.730 C 520 858.845, 517.459 861, 504.351 861 L 497 861 497 864.500 L 497 868 506.750 867.984 C 514.988 867.970, 517.120 867.618, 520.500 865.718 C 527.679 861.683, 527.997 860.160, 527.998 829.750 L 528 803 524 803 C 520.161 803, 520 803.130, 520 806.223 C 520 809.428, 519.992 809.433, 518.439 807.217 C 514.610 801.749, 504.851 800.261, 498.990 804.250 M 606.020 804.250 C 601.527 806.546, 598.676 809.731, 597.515 813.750 C 596.923 815.798, 597.201 816, 600.610 816 C 603.603 816, 604.893 815.355, 607.038 812.786 C 609.489 809.850, 610.219 809.571, 615.478 809.571 C 620.528 809.571, 621.527 809.911, 623.617 812.341 C 625.257 814.247, 626 816.342, 626 819.056 L 626 823 616.234 823 C 608.651 823, 605.690 823.414, 602.984 824.852 C 592.286 830.537, 592.306 845.866, 603.020 851.248 C 606.856 853.176, 614.426 853.549, 618.473 852.010 C 619.905 851.466, 622.184 849.825, 623.538 848.364 L 626 845.708 626 848.854 C 626 851.858, 626.181 852, 630 852 L 634 852 633.996 832.250 C 633.993 814.209, 633.818 812.214, 631.976 809.192 C 627.754 802.268, 614.747 799.791, 606.020 804.250 M 657.990 804.250 C 651.342 808.774, 650.533 810.855, 650.186 824.319 C 649.897 835.504, 650.063 836.859, 652.211 840.895 C 653.600 843.505, 655.955 846.043, 658.009 847.145 C 664.468 850.608, 673.788 848.996, 677.439 843.783 C 678.926 841.661, 679 841.849, 679 847.730 C 679 858.845, 676.459 861, 663.351 861 L 656 861 656 864.500 L 656 868 665.750 867.984 C 673.988 867.970, 676.120 867.618, 679.500 865.718 C 686.679 861.683, 686.997 860.160, 686.998 829.750 L 687 803 683 803 C 679.161 803, 679 803.130, 679 806.223 C 679 809.428, 678.992 809.433, 677.439 807.217 C 673.610 801.749, 663.851 800.261, 657.990 804.250 M 711.907 804.320 C 708.955 805.874, 706.675 808.103, 705 811.070 C 702.718 815.113, 702.500 816.548, 702.500 827.500 C 702.500 838.452, 702.718 839.887, 705 843.930 C 708.323 849.817, 714.269 853, 721.945 853 C 730.870 853, 739.237 847.726, 740.193 841.500 C 740.445 839.856, 739.859 839.446, 736.899 839.199 C 733.973 838.954, 732.989 839.368, 731.651 841.409 C 728.190 846.691, 715.909 846.843, 712.504 841.646 C 711.683 840.394, 710.723 837.262, 710.370 834.685 L 709.728 830 725.364 830 L 741 830 740.978 823.250 C 740.955 816.070, 738.842 809.885, 735.355 806.788 C 729.555 801.638, 719.093 800.537, 711.907 804.320 M 544 820.935 C 544 840.019, 544.499 842.758, 548.814 847.373 C 556.370 855.455, 571.827 854.660, 578.099 845.867 C 580.409 842.627, 580.512 841.752, 580.808 822.750 L 581.117 803 577.058 803 L 573 803 573 820.550 C 573 840.257, 572.307 843, 566.849 844.903 C 562.550 846.401, 557.686 845.358, 554.835 842.327 C 552.590 839.939, 552.488 839.137, 552.188 821.422 L 551.876 803 547.938 803 L 544 803 544 820.935 M 504.476 810.348 C 500.258 812.252, 499 815.756, 499 825.597 C 499 835.857, 500.467 839.339, 505.486 840.995 C 510.242 842.565, 514.430 841.466, 517.473 837.850 C 519.784 835.104, 520 834.042, 520 825.439 C 520 816.583, 519.839 815.853, 517.250 812.981 C 514.007 809.384, 508.930 808.337, 504.476 810.348 M 663.476 810.348 C 659.258 812.252, 658 815.756, 658 825.597 C 658 835.857, 659.467 839.339, 664.486 840.995 C 669.242 842.565, 673.430 841.466, 676.473 837.850 C 678.784 835.104, 679 834.042, 679 825.439 C 679 816.583, 678.839 815.853, 676.250 812.981 C 673.007 809.384, 667.930 808.337, 663.476 810.348 M 716.329 810.411 C 712.634 812.072, 711.315 814.181, 710.404 819.875 L 709.744 824 721.502 824 L 733.260 824 732.740 819.382 C 732.398 816.355, 731.407 813.959, 729.860 812.424 C 726.853 809.442, 720.566 808.506, 716.329 810.411 M 394.321 830.189 C 389.919 832.317, 389.071 839.029, 392.684 843.151 C 396.201 847.164, 407.226 846.071, 410.946 841.341 C 412.379 839.520, 413 837.258, 413 833.865 L 413 829 404.750 829.068 C 400.212 829.105, 395.520 829.609, 394.321 830.189 M 607.321 830.189 C 602.919 832.317, 602.071 839.029, 605.684 843.151 C 609.201 847.164, 620.226 846.071, 623.946 841.341 C 625.379 839.520, 626 837.258, 626 833.865 L 626 829 617.750 829.068 C 613.212 829.105, 608.520 829.609, 607.321 830.189" stroke="none" fill="#f9fbfb" fill-rule="evenodd"/><path d="M 173.536 1.139 C 140.496 5.402, 107.100 18.973, 79.729 39.258 C 69.723 46.674, 51.964 63.806, 43.714 74 C 24.104 98.233, 10.370 127.627, 3.297 160.500 L 0.500 173.500 0.500 540 L 0.500 906.500 3.297 919.500 C 11.855 959.274, 28.643 991.275, 55.428 1018.866 C 84.941 1049.269, 118.275 1067.618, 160.500 1076.703 L 173.500 1079.500 540 1079.500 L 906.500 1079.500 919.500 1076.703 C 961.725 1067.618, 995.059 1049.269, 1024.572 1018.866 C 1045.721 997.080, 1060.449 972.853, 1070.055 944.049 C 1074.086 931.960, 1079 909.786, 1079 903.683 C 1079 901.722, 1079.450 899.840, 1080 899.500 C 1080.664 899.090, 1081 777.803, 1081 538.882 C 1081 299.137, 1080.666 179.088, 1080 179.500 C 1079.402 179.869, 1079 178.636, 1079 176.435 C 1079 170.228, 1074.119 148.139, 1070.055 135.951 C 1063.268 115.600, 1053.638 97.129, 1040.742 79.729 C 1033.326 69.723, 1016.194 51.964, 1006 43.714 C 982.006 24.297, 952.931 10.640, 920 3.316 L 907.500 0.536 544 0.389 C 333.886 0.303, 177.561 0.620, 173.536 1.139 M 0.495 540 C 0.495 738.275, 0.609 819.387, 0.750 720.250 C 0.890 621.112, 0.890 458.887, 0.750 359.750 C 0.609 260.612, 0.495 341.725, 0.495 540 M 361 320.123 C 298.507 326.423, 245.083 367.864, 226.121 424.751 C 220.241 442.391, 218.651 452.556, 218.651 472.500 C 218.651 492.949, 220.296 503.039, 226.570 521.063 C 234.413 543.596, 244.889 560.019, 262.934 578.072 C 285.782 600.932, 309.308 613.798, 342.579 621.629 C 353.711 624.249, 355.956 624.437, 376.500 624.467 C 395.528 624.496, 399.927 624.198, 409.059 622.267 C 460.348 611.421, 501.256 581.927, 539.799 528.008 C 539.992 527.738, 540.573 528.272, 541.090 529.196 C 543.826 534.085, 560.782 554.764, 569.500 563.843 C 599.694 595.290, 632.374 614.111, 670.941 622.267 C 680.073 624.198, 684.472 624.496, 703.500 624.467 C 724.044 624.437, 726.289 624.249, 737.421 621.629 C 770.831 613.765, 794.184 600.997, 817.066 578.083 C 839.643 555.476, 852.499 531.835, 859.176 500.648 C 862.303 486.044, 862.293 458.912, 859.156 444.251 C 850.235 402.565, 828.160 369.959, 792.923 346.421 C 744.916 314.353, 683.234 310.615, 629.227 336.501 C 599.116 350.933, 571.590 374.469, 547.946 406 C 544.028 411.225, 540.480 415.500, 540.062 415.500 C 539.643 415.500, 535.889 411, 531.719 405.500 C 492.392 353.626, 445.317 325.044, 391 320.062 C 378.094 318.878, 373.250 318.888, 361 320.123 M 839.655 320.459 C 827.297 324.865, 824.044 339.198, 833.239 348.731 C 839.920 355.658, 849.647 355.616, 856.632 348.632 C 859.926 345.337, 860.961 343.445, 861.525 339.685 C 862.869 330.719, 857.648 322.385, 849.219 320.044 C 844.613 318.765, 844.377 318.775, 839.655 320.459 M 839.385 324.998 C 829.555 329.961, 829.844 343.701, 839.882 348.576 C 844.771 350.951, 849.748 349.884, 853.690 345.615 C 857.882 341.076, 858.784 336.249, 856.353 331.358 C 852.718 324.044, 846.150 321.582, 839.385 324.998 M 839.422 328.344 C 839.138 329.083, 839.040 333.015, 839.203 337.083 C 839.448 343.191, 839.805 344.537, 841.250 344.813 C 842.541 345.059, 843 344.487, 843 342.632 C 843 338.868, 844.711 338.541, 846.483 341.967 C 847.426 343.791, 848.839 345, 850.026 345 C 852.321 345, 852.414 344.376, 850.608 341.116 C 849.504 339.125, 849.519 338.268, 850.698 335.903 C 851.776 333.742, 851.846 332.581, 850.994 330.989 C 849.084 327.419, 840.527 325.463, 839.422 328.344 M 843 333.500 C 843 335.482, 843.439 336.062, 844.750 335.810 C 845.712 335.624, 846.500 334.585, 846.500 333.500 C 846.500 332.415, 845.712 331.376, 844.750 331.190 C 843.439 330.938, 843 331.518, 843 333.500 M 354 376.126 C 314.290 384.422, 282.572 415.197, 274.274 453.483 C 272.200 463.053, 272.266 482.509, 274.403 491.500 C 279.209 511.726, 288.016 527.057, 303.127 541.506 C 312.704 550.664, 320.036 555.778, 330.308 560.465 C 348.465 568.751, 362.323 571.510, 381.500 570.659 C 407.227 569.518, 428.111 561.645, 450.853 544.514 C 469.267 530.642, 489.335 507.395, 503.407 483.634 C 510.856 471.056, 511.022 473.611, 501.752 458.150 C 479.508 421.054, 447.203 391.814, 416 380.537 C 397.548 373.868, 373.127 372.131, 354 376.126 M 680.500 375.993 C 664.091 379.320, 652.583 384.232, 637 394.560 C 620.878 405.245, 606.054 419.537, 592.152 437.800 C 585.724 446.244, 575.720 461.688, 572.201 468.598 L 570.115 472.695 576.595 483.637 C 593.775 512.647, 617.339 537.992, 640.799 552.694 C 669.627 570.760, 706.782 575.892, 736.242 565.875 C 753.320 560.068, 764.428 553.407, 776.873 541.506 C 791.984 527.057, 800.791 511.726, 805.597 491.500 C 807.734 482.509, 807.800 463.053, 805.726 453.483 C 798.824 421.641, 774.932 393.888, 743.649 381.376 C 725.513 374.123, 700.320 371.975, 680.500 375.993 M 683 441 L 683 457 667 457 L 651 457 651 472.500 L 651 488 667 488 L 683 488 683 504 L 683 520 698.500 520 L 714 520 714 504 L 714 488 730 488 L 746 488 746 472.500 L 746 457 730 457 L 714 457 714 441 L 714 425 698.500 425 L 683 425 683 441 M 333 472.500 L 333 488 380.500 488 L 428 488 428 472.500 L 428 457 380.500 457 L 333 457 333 472.500 M 797.054 670.509 C 789.447 672.215, 782.208 676.810, 778.071 682.559 C 772.912 689.728, 770.732 697.988, 770.219 712.302 C 769.479 732.957, 772.429 743.333, 781.473 751.886 C 788.203 758.251, 794.839 760.401, 807.500 760.321 C 832.473 760.162, 844.058 745.800, 844.188 714.837 C 844.291 690.364, 838.200 677.585, 823.881 672.229 C 816.422 669.439, 805.072 668.712, 797.054 670.509 M 263.169 671.750 C 262.673 672.712, 258.128 686.775, 253.068 703 C 248.009 719.225, 242.098 737.901, 239.934 744.501 C 237.771 751.102, 236 757.065, 236 757.751 C 236 758.674, 238.866 759, 246.961 759 L 257.923 759 259.021 754.750 C 259.625 752.413, 260.669 748.475, 261.341 746 L 262.564 741.500 275.155 741.221 L 287.746 740.942 290.102 749.971 L 292.458 759 304.336 759 C 315.238 759, 316.159 758.856, 315.542 757.250 C 315.172 756.288, 310.868 742.900, 305.976 727.500 C 301.084 712.100, 294.961 692.862, 292.368 684.750 L 287.654 670 275.862 670 C 265.642 670, 263.950 670.233, 263.169 671.750 M 330.667 670.667 C 330.300 671.033, 330 691.058, 330 715.167 L 330 759 341 759 L 352 759 352 744.950 L 352 730.900 357.540 731.200 L 363.080 731.500 369.540 745 L 376.001 758.500 389.097 758.780 L 402.193 759.059 394.937 745.280 C 390.946 737.701, 387.085 730.577, 386.356 729.449 C 385.148 727.579, 385.427 727.066, 389.524 723.642 C 391.996 721.576, 394.895 718.166, 395.968 716.064 C 399.772 708.605, 400.331 694.977, 397.164 686.861 C 395.500 682.597, 390.035 677.052, 384.966 674.483 C 382.135 673.048, 376.916 671.676, 371.902 671.047 C 362.704 669.894, 331.725 669.608, 330.667 670.667 M 417.667 670.667 C 417.300 671.033, 417 691.090, 417 715.237 L 417 759.140 438.750 758.762 C 462.997 758.341, 467.672 757.436, 475.112 751.724 C 485.441 743.796, 489.072 735.375, 489.778 717.721 C 490.547 698.472, 487.400 688.043, 478.444 680.160 C 472.599 675.015, 465.403 672.297, 454.237 671.018 C 444.405 669.891, 418.689 669.644, 417.667 670.667 M 506.406 671.384 C 506.114 672.146, 506.015 687.558, 506.187 705.634 C 506.493 737.811, 506.550 738.611, 508.889 743.788 C 514.620 756.469, 530.399 762.936, 548.483 760.015 C 560.904 758.009, 568.648 753.175, 573.338 744.500 C 575.437 740.617, 575.500 739.476, 575.500 705.500 L 575.500 670.500 565.500 670.500 L 555.500 670.500 555 702.679 C 554.523 733.368, 554.403 734.988, 552.404 737.679 C 548.274 743.239, 537.142 744.233, 532.376 739.467 C 528.522 735.613, 528.011 730.974, 528.006 699.750 L 528 670 517.469 670 C 509.421 670, 506.812 670.326, 506.406 671.384 M 596.680 670.653 C 596.306 671.027, 596 675.308, 596 680.167 L 596 689 607.500 689 L 619 689 619 715 L 619 741 607.500 741 L 596 741 596 750 L 596 759 630 759 L 664 759 664 750 L 664 741 652.500 741 L 641 741 641 715 L 641 689 652.538 689 L 664.075 689 663.788 679.750 L 663.500 670.500 630.430 670.237 C 612.241 670.092, 597.054 670.279, 596.680 670.653 M 682 714.500 L 682 759 692.500 759 L 703 759 703 731.777 C 703 708.608, 703.201 704.849, 704.351 706.527 C 705.094 707.612, 711.731 719.861, 719.101 733.746 L 732.500 758.992 743.760 758.996 L 755.021 759 754.760 714.750 L 754.500 670.500 744.750 670.214 L 735 669.928 735 695.964 C 735 710.284, 734.663 721.995, 734.250 721.988 C 733.837 721.982, 732.112 719.394, 730.417 716.238 C 728.721 713.082, 722.421 701.391, 716.417 690.257 L 705.500 670.015 693.750 670.007 L 682 670 682 714.500 M 801 688.268 C 795.025 690.371, 793.604 694.791, 793.164 712.636 C 792.576 736.517, 795.140 742.192, 806.591 742.357 C 813.093 742.451, 816.393 740.749, 818.705 736.105 C 820.232 733.039, 820.500 729.810, 820.500 714.500 C 820.500 691.329, 819.491 688.971, 809 687.616 C 806.424 687.284, 803.003 687.562, 801 688.268 M 439.427 688.906 C 439.192 689.141, 439 700.958, 439 715.167 L 439 741 446.288 741 C 455.688 741, 461.459 738.298, 464.442 732.500 C 466.220 729.044, 466.500 726.664, 466.500 715 C 466.500 703.478, 466.207 700.923, 464.500 697.565 C 461.321 691.309, 458.292 689.704, 448.433 689.049 C 443.715 688.736, 439.662 688.671, 439.427 688.906 M 352.219 701.250 L 352.500 713.500 358.212 713.799 C 370.805 714.457, 375.989 710.486, 375.996 700.173 C 375.999 695.616, 375.577 694.424, 373.077 691.923 C 370.274 689.120, 369.779 689, 361.046 689 L 351.938 689 352.219 701.250 M 270.602 707.984 C 268.621 716.297, 267 723.302, 267 723.549 C 267 723.797, 270.600 724, 275 724 C 279.400 724, 283 723.660, 283 723.245 C 283 721.946, 275.179 693.846, 274.678 693.345 C 274.417 693.084, 272.582 699.671, 270.602 707.984 M 334 819.500 L 334 852 353 852 L 372 852 372 848.500 L 372 845 357.500 845 L 343 845 343 816 L 343 787 338.500 787 L 334 787 334 819.500 M 393.020 804.250 C 388.527 806.546, 385.676 809.731, 384.515 813.750 C 383.923 815.798, 384.201 816, 387.610 816 C 390.603 816, 391.893 815.355, 394.038 812.786 C 396.489 809.850, 397.219 809.571, 402.478 809.571 C 407.528 809.571, 408.527 809.911, 410.617 812.341 C 412.257 814.247, 413 816.342, 413 819.056 L 413 823 403.234 823 C 395.651 823, 392.690 823.414, 389.984 824.852 C 379.286 830.537, 379.306 845.866, 390.020 851.248 C 393.856 853.176, 401.426 853.549, 405.473 852.010 C 406.905 851.466, 409.184 849.825, 410.538 848.364 L 413 845.708 413 848.854 C 413 851.858, 413.181 852, 417 852 L 421 852 420.996 832.250 C 420.993 814.209, 420.818 812.214, 418.976 809.192 C 414.754 802.268, 401.747 799.791, 393.020 804.250 M 449.882 805.882 L 446 809.765 446 806.382 C 446 803.103, 445.878 803, 442 803 L 438 803 438 827.500 L 438 852 441.937 852 L 445.874 852 446.187 834.070 C 446.473 817.697, 446.682 815.896, 448.597 813.334 C 452.804 807.707, 463.699 808.447, 466.006 814.517 C 466.553 815.954, 467 824.976, 467 834.565 L 467 852 471 852 L 475 852 475 832.148 C 475 813.173, 474.900 812.146, 472.730 808.898 C 469.782 804.485, 464.709 802.003, 458.632 802.002 C 454.310 802, 453.329 802.435, 449.882 805.882 M 498.990 804.250 C 492.342 808.774, 491.533 810.855, 491.186 824.319 C 490.897 835.504, 491.063 836.859, 493.211 840.895 C 494.600 843.505, 496.955 846.043, 499.009 847.145 C 505.468 850.608, 514.788 848.996, 518.439 843.783 C 519.926 841.661, 520 841.849, 520 847.730 C 520 858.845, 517.459 861, 504.351 861 L 497 861 497 864.500 L 497 868 506.750 867.984 C 514.988 867.970, 517.120 867.618, 520.500 865.718 C 527.679 861.683, 527.997 860.160, 527.998 829.750 L 528 803 524 803 C 520.161 803, 520 803.130, 520 806.223 C 520 809.428, 519.992 809.433, 518.439 807.217 C 514.610 801.749, 504.851 800.261, 498.990 804.250 M 606.020 804.250 C 601.527 806.546, 598.676 809.731, 597.515 813.750 C 596.923 815.798, 597.201 816, 600.610 816 C 603.603 816, 604.893 815.355, 607.038 812.786 C 609.489 809.850, 610.219 809.571, 615.478 809.571 C 620.528 809.571, 621.527 809.911, 623.617 812.341 C 625.257 814.247, 626 816.342, 626 819.056 L 626 823 616.234 823 C 608.651 823, 605.690 823.414, 602.984 824.852 C 592.286 830.537, 592.306 845.866, 603.020 851.248 C 606.856 853.176, 614.426 853.549, 618.473 852.010 C 619.905 851.466, 622.184 849.825, 623.538 848.364 L 626 845.708 626 848.854 C 626 851.858, 626.181 852, 630 852 L 634 852 633.996 832.250 C 633.993 814.209, 633.818 812.214, 631.976 809.192 C 627.754 802.268, 614.747 799.791, 606.020 804.250 M 657.990 804.250 C 651.342 808.774, 650.533 810.855, 650.186 824.319 C 649.897 835.504, 650.063 836.859, 652.211 840.895 C 653.600 843.505, 655.955 846.043, 658.009 847.145 C 664.468 850.608, 673.788 848.996, 677.439 843.783 C 678.926 841.661, 679 841.849, 679 847.730 C 679 858.845, 676.459 861, 663.351 861 L 656 861 656 864.500 L 656 868 665.750 867.984 C 673.988 867.970, 676.120 867.618, 679.500 865.718 C 686.679 861.683, 686.997 860.160, 686.998 829.750 L 687 803 683 803 C 679.161 803, 679 803.130, 679 806.223 C 679 809.428, 678.992 809.433, 677.439 807.217 C 673.610 801.749, 663.851 800.261, 657.990 804.250 M 711.907 804.320 C 708.955 805.874, 706.675 808.103, 705 811.070 C 702.718 815.113, 702.500 816.548, 702.500 827.500 C 702.500 838.452, 702.718 839.887, 705 843.930 C 708.323 849.817, 714.269 853, 721.945 853 C 730.870 853, 739.237 847.726, 740.193 841.500 C 740.445 839.856, 739.859 839.446, 736.899 839.199 C 733.973 838.954, 732.989 839.368, 731.651 841.409 C 728.190 846.691, 715.909 846.843, 712.504 841.646 C 711.683 840.394, 710.723 837.262, 710.370 834.685 L 709.728 830 725.364 830 L 741 830 740.978 823.250 C 740.955 816.070, 738.842 809.885, 735.355 806.788 C 729.555 801.638, 719.093 800.537, 711.907 804.320 M 544 820.935 C 544 840.019, 544.499 842.758, 548.814 847.373 C 556.370 855.455, 571.827 854.660, 578.099 845.867 C 580.409 842.627, 580.512 841.752, 580.808 822.750 L 581.117 803 577.058 803 L 573 803 573 820.550 C 573 840.257, 572.307 843, 566.849 844.903 C 562.550 846.401, 557.686 845.358, 554.835 842.327 C 552.590 839.939, 552.488 839.137, 552.188 821.422 L 551.876 803 547.938 803 L 544 803 544 820.935 M 504.476 810.348 C 500.258 812.252, 499 815.756, 499 825.597 C 499 835.857, 500.467 839.339, 505.486 840.995 C 510.242 842.565, 514.430 841.466, 517.473 837.850 C 519.784 835.104, 520 834.042, 520 825.439 C 520 816.583, 519.839 815.853, 517.250 812.981 C 514.007 809.384, 508.930 808.337, 504.476 810.348 M 663.476 810.348 C 659.258 812.252, 658 815.756, 658 825.597 C 658 835.857, 659.467 839.339, 664.486 840.995 C 669.242 842.565, 673.430 841.466, 676.473 837.850 C 678.784 835.104, 679 834.042, 679 825.439 C 679 816.583, 678.839 815.853, 676.250 812.981 C 673.007 809.384, 667.930 808.337, 663.476 810.348 M 716.329 810.411 C 712.634 812.072, 711.315 814.181, 710.404 819.875 L 709.744 824 721.502 824 L 733.260 824 732.740 819.382 C 732.398 816.355, 731.407 813.959, 729.860 812.424 C 726.853 809.442, 720.566 808.506, 716.329 810.411 M 394.321 830.189 C 389.919 832.317, 389.071 839.029, 392.684 843.151 C 396.201 847.164, 407.226 846.071, 410.946 841.341 C 412.379 839.520, 413 837.258, 413 833.865 L 413 829 404.750 829.068 C 400.212 829.105, 395.520 829.609, 394.321 830.189 M 607.321 830.189 C 602.919 832.317, 602.071 839.029, 605.684 843.151 C 609.201 847.164, 620.226 846.071, 623.946 841.341 C 625.379 839.520, 626 837.258, 626 833.865 L 626 829 617.750 829.068 C 613.212 829.105, 608.520 829.609, 607.321 830.189" stroke="none" fill="#049c9c" fill-rule="evenodd"/></svg>