<?xml version="1.0" standalone="no"?>
<!DOCTYPE svg PUBLIC "-//W3C//DTD SVG 20010904//EN"
 "http://www.w3.org/TR/2001/REC-SVG-20010904/DTD/svg10.dtd">
<svg version="1.0" xmlns="http://www.w3.org/2000/svg"
 width="1080.000000pt" height="1080.000000pt" viewBox="0 0 1080.000000 1080.000000"
 preserveAspectRatio="xMidYMid meet">

<g transform="translate(0.000000,1080.000000) scale(0.100000,-0.100000)"
fill="#000000" stroke="none">
<path d="M1845 10789 c-321 -20 -679 -142 -949 -323 -525 -352 -845 -907 -886
-1533 -13 -199 -13 -6867 0 -7066 40 -625 362 -1182 883 -1530 291 -195 616
-304 977 -327 194 -13 6866 -13 7060 0 361 23 686 132 977 327 521 348 843
905 883 1530 13 199 13 6867 0 7066 -65 1005 -857 1795 -1863 1857 -183 11
-6906 11 -7082 -1z m2249 -3208 c136 -28 319 -87 413 -135 318 -160 586 -390
819 -702 36 -49 69 -90 74 -92 5 -2 27 24 49 56 102 150 301 364 453 486 333
269 674 400 1070 413 328 11 619 -60 884 -218 302 -180 505 -409 653 -737 129
-288 150 -666 56 -997 -34 -120 -148 -351 -224 -453 -173 -233 -390 -407 -653
-523 -228 -101 -385 -133 -653 -134 -114 0 -220 5 -265 13 -276 49 -528 154
-751 313 -194 139 -390 332 -541 536 -40 54 -74 100 -76 103 -2 3 -7 -2 -12
-10 -53 -94 -268 -340 -403 -462 -388 -351 -816 -515 -1287 -495 -221 10 -392
49 -588 136 -202 89 -365 203 -514 359 -117 123 -193 232 -269 387 -108 221
-151 404 -151 645 -1 222 36 410 113 582 148 329 350 557 653 737 175 104 363
170 583 206 133 21 426 14 567 -14z m4463 -7 c27 -22 43 -47 56 -84 16 -48 16
-57 3 -104 -15 -51 -48 -92 -93 -115 -31 -16 -119 -14 -152 4 -65 33 -110 121
-97 188 9 46 56 109 97 130 54 28 139 19 186 -19z m-315 -3489 c148 -53 216
-207 206 -468 -9 -215 -64 -324 -194 -388 -59 -29 -79 -34 -165 -37 -81 -4
-108 -1 -165 18 -114 38 -194 135 -223 268 -16 76 -14 265 5 342 33 143 128
249 251 280 56 14 230 5 285 -15z m-5351 -7 c5 -13 48 -144 95 -293 112 -355
169 -535 178 -562 l7 -23 -124 0 -125 0 -21 78 c-12 43 -21 84 -21 90 0 9 -35
12 -125 12 l-124 0 -11 -42 c-6 -24 -17 -63 -23 -88 l-13 -45 -117 -3 c-69 -1
-117 1 -117 7 0 5 29 103 65 218 36 114 98 313 137 441 l72 232 128 0 c123 0
129 -1 139 -22z m941 -6 c109 -44 170 -141 170 -273 0 -70 -4 -88 -31 -144
-18 -37 -49 -79 -71 -97 l-38 -32 33 -66 c18 -36 56 -105 84 -155 28 -49 51
-93 51 -97 0 -5 -61 -8 -136 -8 l-136 0 -66 140 -67 140 -47 0 -48 0 0 -140 0
-141 -117 3 -118 3 -3 448 -2 449 242 -4 c224 -3 247 -6 300 -26z m840 0 c91
-30 154 -88 199 -184 l34 -73 0 -155 c0 -137 -3 -161 -23 -211 -47 -117 -116
-183 -231 -221 -56 -18 -97 -22 -273 -26 l-208 -4 0 452 0 452 218 -4 c188 -4
226 -7 284 -26z m618 -269 c0 -386 7 -412 113 -421 62 -5 96 9 119 50 10 17
14 109 18 343 l5 320 113 3 113 3 -3 -343 c-3 -333 -4 -344 -26 -393 -31 -68
-73 -108 -146 -141 -81 -37 -244 -46 -328 -19 -70 24 -120 56 -153 99 -51 67
-55 101 -55 463 l0 333 115 0 115 0 0 -297z m1350 197 l0 -100 -115 0 -115 0
0 -255 0 -255 115 0 115 0 0 -95 0 -95 -342 2 -343 3 -3 93 -3 92 116 0 115 0
0 258 0 257 -112 0 -113 0 -3 98 -3 97 346 0 345 0 0 -100z m428 88 c5 -7 45
-78 87 -158 43 -80 101 -188 129 -240 l51 -95 3 253 2 252 110 0 110 0 -2
-447 -3 -448 -117 -3 -116 -3 -65 123 c-35 68 -100 190 -143 272 l-79 149 -3
-272 -2 -272 -108 3 -107 3 -3 448 -2 447 124 0 c87 0 127 -4 134 -12z m-3638
-1448 l0 -290 145 0 145 0 0 -35 0 -35 -190 0 -190 0 0 325 0 325 45 0 45 0 0
-290z m693 126 c43 -18 73 -53 86 -101 6 -22 11 -118 11 -212 l0 -173 -45 0
c-44 0 -45 1 -45 32 0 32 0 32 -16 10 -24 -34 -68 -52 -129 -52 -64 0 -102 16
-139 60 -22 26 -26 42 -26 90 0 48 4 64 26 90 43 51 72 60 185 60 l102 0 -5
45 c-7 55 -20 72 -67 86 -47 14 -112 -6 -126 -38 -8 -19 -18 -23 -53 -23 -43
0 -44 1 -38 26 19 73 85 114 184 114 34 0 77 -6 95 -14z m553 -2 c18 -9 44
-33 56 -53 22 -34 23 -49 26 -233 l4 -198 -46 0 -46 0 0 179 c0 176 0 180 -25
209 -29 34 -71 46 -115 31 -53 -19 -60 -48 -60 -244 l0 -175 -45 0 -45 0 0
245 0 245 45 0 c42 0 45 -2 46 -27 0 -16 3 -22 6 -15 18 47 133 67 199 36z
m490 -18 l34 -34 0 29 c0 28 2 29 45 29 l45 0 0 -242 c0 -134 -5 -263 -11
-288 -21 -90 -74 -120 -214 -120 l-95 0 0 34 0 34 90 4 c117 4 132 17 138 115
3 67 3 68 -15 47 -28 -33 -57 -44 -116 -44 -67 0 -113 28 -142 85 -30 59 -29
243 1 300 31 60 74 85 146 85 55 0 63 -3 94 -34z m1087 20 c43 -18 73 -53 86
-101 6 -22 11 -118 11 -212 l0 -173 -45 0 c-44 0 -45 1 -45 32 0 32 0 32 -16
10 -24 -34 -68 -52 -129 -52 -64 0 -102 16 -139 60 -22 26 -26 42 -26 90 0 48
4 64 26 90 43 51 72 60 185 60 l102 0 -5 45 c-7 55 -20 72 -67 86 -47 14 -112
-6 -126 -38 -8 -19 -18 -23 -53 -23 -43 0 -44 1 -38 26 19 73 85 114 184 114
34 0 77 -6 95 -14z m503 -20 l34 -34 0 29 c0 28 2 29 45 29 l45 0 0 -242 c0
-134 -5 -263 -11 -288 -21 -90 -74 -120 -214 -120 l-95 0 0 34 0 34 90 4 c117
4 132 17 138 115 3 67 3 68 -15 47 -28 -33 -57 -44 -116 -44 -67 0 -113 28
-142 85 -30 59 -29 243 1 300 31 60 74 85 146 85 55 0 63 -3 94 -34z m547 20
c39 -16 82 -61 96 -99 6 -16 11 -60 11 -98 l0 -69 -150 0 -150 0 0 -43 c0 -23
7 -53 16 -66 23 -32 78 -53 119 -45 33 6 75 36 75 54 0 6 20 10 45 10 52 0 56
-11 23 -60 -43 -63 -70 -75 -167 -75 -80 0 -91 2 -124 28 -58 44 -71 77 -75
197 -6 156 17 218 96 260 44 23 138 26 185 6z m-1781 -174 c3 -200 10 -221 73
-242 30 -10 41 -9 72 7 58 28 63 46 63 241 l0 172 45 0 45 0 0 -167 c0 -187
-8 -228 -51 -278 -38 -43 -85 -58 -164 -53 -48 3 -70 10 -97 30 -62 47 -68 73
-68 282 l0 186 39 0 39 0 4 -178z"/>
<path d="M3660 7054 c-397 -49 -725 -289 -860 -630 -43 -107 -62 -214 -63
-344 -1 -229 66 -419 209 -598 292 -365 820 -483 1282 -288 182 76 405 253
577 456 74 88 210 285 260 377 l28 52 -33 58 c-272 482 -668 816 -1064 898
-80 16 -271 27 -336 19z m628 -981 l-3 -158 -480 0 -480 0 -3 158 -3 157 486
0 486 0 -3 -157z"/>
<path d="M6920 7054 c-336 -42 -640 -217 -897 -518 -93 -108 -219 -287 -282
-399 l-33 -59 28 -51 c48 -89 180 -282 257 -374 169 -202 395 -382 579 -459
462 -195 990 -77 1282 288 143 179 210 369 209 598 -2 309 -126 556 -383 761
-98 79 -286 164 -425 194 -72 15 -273 27 -335 19z m222 -656 l3 -163 163 -3
163 -2 -3 -158 -3 -157 -162 -3 -163 -2 0 -161 0 -160 -157 3 -158 3 -3 157
-3 157 -157 3 -157 3 -3 158 -3 157 161 0 160 0 0 158 c0 87 3 162 7 165 3 4
75 7 159 7 l154 0 2 -162z"/>
<path d="M8369 7521 c-31 -31 -39 -46 -39 -75 0 -107 83 -164 175 -120 109 52
66 234 -56 234 -35 0 -48 -6 -80 -39z m133 -8 c20 -18 23 -54 7 -84 -8 -16 -7
-26 6 -45 9 -13 13 -29 10 -34 -13 -21 -46 -9 -65 23 l-20 32 0 -27 c0 -31
-12 -42 -40 -33 -18 6 -20 15 -20 96 l0 89 52 0 c34 0 58 -6 70 -17z"/>
<path d="M8440 7465 c0 -9 5 -15 11 -13 6 2 11 8 11 13 0 5 -5 11 -11 13 -6 2
-11 -4 -11 -13z"/>
<path d="M8004 3906 c-54 -24 -69 -82 -69 -266 0 -137 3 -160 21 -195 25 -48
54 -65 111 -65 93 0 120 35 134 175 9 103 -2 280 -21 315 -24 44 -114 63 -176
36z"/>
<path d="M2715 3727 c-16 -67 -31 -130 -33 -139 -3 -16 5 -18 68 -18 63 0 71
2 66 18 -3 9 -19 71 -37 137 -17 66 -32 121 -33 122 0 0 -14 -54 -31 -120z"/>
<path d="M3530 3791 l0 -121 68 0 c92 0 133 21 151 79 17 55 6 107 -30 133
-19 14 -49 21 -108 25 l-81 6 0 -122z"/>
<path d="M4400 3650 l0 -263 78 7 c94 9 130 28 160 86 19 39 22 59 22 170 0
111 -3 131 -22 170 -28 56 -68 76 -165 86 l-73 7 0 -263z"/>
<path d="M3960 2503 c-46 -17 -65 -76 -40 -123 14 -26 76 -41 124 -30 58 13
78 39 84 104 l4 56 -78 -1 c-44 0 -86 -3 -94 -6z"/>
<path d="M5064 2703 c-12 -2 -32 -15 -45 -29 -22 -24 -24 -34 -24 -129 0 -94
2 -106 23 -128 30 -32 74 -41 117 -23 48 20 65 60 65 151 0 91 -17 131 -65
151 -19 8 -38 13 -42 13 -4 -1 -18 -4 -29 -6z"/>
<path d="M6090 2503 c-46 -17 -65 -76 -40 -123 14 -26 76 -41 124 -30 58 13
78 39 84 104 l4 56 -78 -1 c-44 0 -86 -3 -94 -6z"/>
<path d="M6654 2703 c-12 -2 -32 -15 -45 -29 -22 -24 -24 -34 -24 -129 0 -94
2 -106 23 -128 30 -32 74 -41 117 -23 48 20 65 60 65 151 0 91 -17 131 -65
151 -19 8 -38 13 -42 13 -4 -1 -18 -4 -29 -6z"/>
<path d="M7183 2703 c-37 -7 -73 -59 -73 -104 l0 -39 110 0 c123 0 120 -2 99
73 -14 53 -72 83 -136 70z"/>
</g>
</svg>
