<svg xmlns="http://www.w3.org/2000/svg" width="1080" height="1080" viewBox="0 0 1080 1080" version="1.1"><path d="M 438.500 322.937 C 336.274 323.496, 335.501 323.515, 335.686 325.500 C 335.789 326.600, 336.372 332.900, 336.982 339.500 C 338.040 350.948, 339.718 364.917, 342.161 382.610 L 343.280 390.720 352.294 391.360 C 357.251 391.712, 395.776 392.002, 437.904 392.005 C 512.381 392.010, 534.935 392.499, 533.296 394.072 C 532.858 394.492, 525.975 397.615, 518 401.011 C 510.025 404.407, 501.240 408.217, 498.477 409.476 C 495.715 410.735, 489.640 413.346, 484.977 415.278 C 480.315 417.210, 474.025 419.908, 471 421.274 C 467.975 422.640, 452.675 429.267, 437 436 C 421.325 442.733, 406.240 449.260, 403.477 450.504 C 400.715 451.747, 394.640 454.346, 389.977 456.278 C 385.315 458.210, 379.025 460.914, 376 462.288 C 372.975 463.661, 367.125 466.208, 363 467.948 C 352.154 472.523, 350.760 473.591, 351.417 476.816 C 351.717 478.292, 352.427 485.350, 352.994 492.500 C 353.966 504.764, 356.167 527.545, 357.776 542 L 358.500 548.500 497 548.500 L 635.500 548.500 635.369 560 C 635.297 566.325, 634.707 579.375, 634.057 589 C 633.408 598.625, 632.288 615.179, 631.568 625.788 C 630.847 636.396, 629.994 645.340, 629.670 645.663 C 629.148 646.185, 617.757 649.803, 605 653.497 C 579.050 661.013, 542.599 672.233, 541.108 673.165 C 539.640 674.081, 537.181 673.955, 529.865 672.588 C 524.714 671.626, 516.900 670.168, 512.500 669.349 C 508.100 668.529, 500.225 667.017, 495 665.987 C 489.775 664.957, 479.200 662.939, 471.500 661.501 C 453.064 658.058, 444.763 656.038, 443.313 654.642 C 442.635 653.990, 441.663 647.709, 441.046 640 C 438.618 609.657, 437.293 596.284, 436.607 595.173 C 436.074 594.311, 426.349 594, 399.941 594 L 364 594 363.993 599.750 C 363.982 608.094, 367.936 656.220, 369.969 672.500 C 373.471 700.537, 374.265 706.637, 374.548 707.660 C 374.724 708.298, 377.260 709.482, 380.184 710.292 C 397.996 715.227, 469.954 733.734, 521.404 746.613 L 539.308 751.094 547.904 749.049 C 552.632 747.924, 561.675 745.629, 568 743.950 C 574.325 742.270, 588.725 738.449, 600 735.459 C 629.390 727.663, 637.243 725.580, 658 720.069 C 668.175 717.367, 682.800 713.509, 690.500 711.496 C 698.200 709.482, 704.848 707.501, 705.273 707.094 C 705.698 706.687, 706.475 701.662, 706.998 695.927 C 707.850 686.590, 708.853 675.514, 711.971 641 C 715.882 597.703, 717.279 581.418, 719.005 559 C 719.534 552.125, 720.415 541.325, 720.963 535 C 724.036 499.530, 725.119 483.966, 724.827 479.500 L 724.500 474.500 645 474.790 C 556.942 475.111, 561.104 475.471, 576.897 468.901 C 581.079 467.162, 586.750 464.712, 589.500 463.456 C 592.250 462.201, 601.917 457.948, 610.981 454.006 C 620.046 450.065, 629.279 446.012, 631.500 445 C 633.721 443.988, 642.946 439.938, 652 436 C 661.054 432.062, 670.271 428.017, 672.481 427.013 C 674.692 426.008, 687.913 420.213, 701.863 414.134 C 715.813 408.055, 728.217 402.433, 729.428 401.639 C 731.474 400.298, 731.752 398.732, 733.385 379.349 C 734.351 367.882, 735.531 354.900, 736.006 350.500 C 737.632 335.451, 738.194 324.238, 737.347 323.736 C 735.869 322.862, 545.477 322.352, 438.500 322.937" stroke="none" fill="#e7e8e8" fill-rule="evenodd"/><path d="M 184.500 1.132 C 148.549 5.647, 114.591 19.238, 84.645 41.095 C 71.638 50.589, 50.589 71.638, 41.095 84.645 C 18.822 115.161, 5.528 148.780, 1.026 185.974 C 0.343 191.616, 0.007 310.072, 0.020 540.474 C 0.040 907.395, -0.128 893.239, 4.459 915 C 10.199 942.234, 23.307 970.984, 41.095 995.355 C 50.589 1008.362, 71.638 1029.411, 84.645 1038.905 C 114.673 1060.822, 146.345 1073.586, 183 1078.541 C 198.731 1080.668, 881.269 1080.668, 897 1078.541 C 933.655 1073.586, 965.327 1060.822, 995.355 1038.905 C 1008.362 1029.411, 1029.411 1008.362, 1038.905 995.355 C 1060.752 965.422, 1075.652 928.116, 1078.652 895.830 C 1079.005 892.039, 1079.677 888.700, 1080.147 888.409 C 1080.616 888.119, 1081 730.832, 1081 538.882 C 1081 344.657, 1080.619 190.117, 1080.141 190.413 C 1079.669 190.705, 1078.996 187.869, 1078.647 184.111 C 1075.652 151.888, 1060.735 114.554, 1038.905 84.645 C 1029.411 71.638, 1008.362 50.589, 995.355 41.095 C 970.984 23.307, 942.234 10.199, 915 4.459 C 893.212 -0.133, 907.678 0.033, 539 0.146 C 345.895 0.205, 188.390 0.644, 184.500 1.132 M 0.494 540 C 0.494 732.225, 0.609 810.863, 0.750 714.750 C 0.891 618.638, 0.891 461.363, 0.750 365.250 C 0.609 269.138, 0.494 347.775, 0.494 540 M 438.500 322.937 C 336.274 323.496, 335.501 323.515, 335.686 325.500 C 335.789 326.600, 336.372 332.900, 336.982 339.500 C 338.040 350.948, 339.718 364.917, 342.161 382.610 L 343.280 390.720 352.294 391.360 C 357.251 391.712, 395.776 392.002, 437.904 392.005 C 512.381 392.010, 534.935 392.499, 533.296 394.072 C 532.858 394.492, 525.975 397.615, 518 401.011 C 510.025 404.407, 501.240 408.217, 498.477 409.476 C 495.715 410.735, 489.640 413.346, 484.977 415.278 C 480.315 417.210, 474.025 419.908, 471 421.274 C 467.975 422.640, 452.675 429.267, 437 436 C 421.325 442.733, 406.240 449.260, 403.477 450.504 C 400.715 451.747, 394.640 454.346, 389.977 456.278 C 385.315 458.210, 379.025 460.914, 376 462.288 C 372.975 463.661, 367.125 466.208, 363 467.948 C 352.154 472.523, 350.760 473.591, 351.417 476.816 C 351.717 478.292, 352.427 485.350, 352.994 492.500 C 353.966 504.764, 356.167 527.545, 357.776 542 L 358.500 548.500 497 548.500 L 635.500 548.500 635.369 560 C 635.297 566.325, 634.707 579.375, 634.057 589 C 633.408 598.625, 632.288 615.179, 631.568 625.788 C 630.847 636.396, 629.994 645.340, 629.670 645.663 C 629.148 646.185, 617.757 649.803, 605 653.497 C 579.050 661.013, 542.599 672.233, 541.108 673.165 C 539.640 674.081, 537.181 673.955, 529.865 672.588 C 524.714 671.626, 516.900 670.168, 512.500 669.349 C 508.100 668.529, 500.225 667.017, 495 665.987 C 489.775 664.957, 479.200 662.939, 471.500 661.501 C 453.064 658.058, 444.763 656.038, 443.313 654.642 C 442.635 653.990, 441.663 647.709, 441.046 640 C 438.618 609.657, 437.293 596.284, 436.607 595.173 C 436.074 594.311, 426.349 594, 399.941 594 L 364 594 363.993 599.750 C 363.982 608.094, 367.936 656.220, 369.969 672.500 C 373.471 700.537, 374.265 706.637, 374.548 707.660 C 374.724 708.298, 377.260 709.482, 380.184 710.292 C 397.996 715.227, 469.954 733.734, 521.404 746.613 L 539.308 751.094 547.904 749.049 C 552.632 747.924, 561.675 745.629, 568 743.950 C 574.325 742.270, 588.725 738.449, 600 735.459 C 629.390 727.663, 637.243 725.580, 658 720.069 C 668.175 717.367, 682.800 713.509, 690.500 711.496 C 698.200 709.482, 704.848 707.501, 705.273 707.094 C 705.698 706.687, 706.475 701.662, 706.998 695.927 C 707.850 686.590, 708.853 675.514, 711.971 641 C 715.882 597.703, 717.279 581.418, 719.005 559 C 719.534 552.125, 720.415 541.325, 720.963 535 C 724.036 499.530, 725.119 483.966, 724.827 479.500 L 724.500 474.500 645 474.790 C 556.942 475.111, 561.104 475.471, 576.897 468.901 C 581.079 467.162, 586.750 464.712, 589.500 463.456 C 592.250 462.201, 601.917 457.948, 610.981 454.006 C 620.046 450.065, 629.279 446.012, 631.500 445 C 633.721 443.988, 642.946 439.938, 652 436 C 661.054 432.062, 670.271 428.017, 672.481 427.013 C 674.692 426.008, 687.913 420.213, 701.863 414.134 C 715.813 408.055, 728.217 402.433, 729.428 401.639 C 731.474 400.298, 731.752 398.732, 733.385 379.349 C 734.351 367.882, 735.531 354.900, 736.006 350.500 C 737.632 335.451, 738.194 324.238, 737.347 323.736 C 735.869 322.862, 545.477 322.352, 438.500 322.937" stroke="none" fill="#0477be" fill-rule="evenodd"/></svg>