<svg xmlns="http://www.w3.org/2000/svg" width="1080" height="1080" viewBox="0 0 1080 1080" version="1.1"><path d="M 336.443 308.093 C 336.058 308.715, 338.186 334.958, 342.516 383 C 343.928 398.675, 345.508 416.450, 346.026 422.500 C 346.544 428.550, 347.196 435.525, 347.476 438 C 347.755 440.475, 348.223 445.425, 348.516 449 C 349.383 459.583, 351.774 486.915, 353.939 511 C 355.052 523.375, 356.221 536.425, 356.536 540 C 356.851 543.575, 357.360 547.962, 357.666 549.750 L 358.223 553 498.673 553 L 639.123 553 638.559 557.250 C 637.993 561.523, 637.191 569.775, 632.506 619.500 C 631.107 634.350, 629.633 648.975, 629.231 652 L 628.500 657.500 613.500 661.671 C 605.250 663.965, 585 669.494, 568.500 673.956 L 538.500 682.071 508.500 673.996 C 492 669.555, 471.696 664.088, 463.380 661.847 L 448.261 657.773 447.166 646.137 C 446.564 639.736, 445.553 628.425, 444.919 621 C 444.285 613.575, 443.481 604.350, 443.133 600.500 L 442.500 593.500 402.221 593.239 L 361.942 592.977 362.474 599.239 C 363.511 611.437, 366.014 642.849, 368.033 669 C 369.158 683.575, 370.507 700.450, 371.031 706.500 C 371.554 712.550, 371.987 718.228, 371.991 719.118 C 372 720.816, 371.623 720.695, 409 731.012 C 447.703 741.695, 497.599 755.443, 516.402 760.606 C 527.348 763.611, 536.675 766.299, 537.129 766.580 C 537.836 767.017, 568.978 758.715, 612.500 746.489 C 619.100 744.635, 636.200 739.898, 650.500 735.962 C 699.858 722.376, 704.182 721.152, 704.733 720.600 C 705.352 719.982, 706.668 706.648, 710.471 662.500 C 713.906 622.618, 717.587 580.471, 719.989 553.500 C 721.067 541.400, 722.661 522.950, 723.533 512.500 C 724.404 502.050, 725.766 488.809, 726.559 483.076 C 727.351 477.343, 728 472.280, 728 471.826 C 728 471.372, 661.478 471, 580.173 471 L 432.346 471 430.612 450.750 C 429.658 439.613, 428.230 422.850, 427.438 413.500 C 426.645 404.150, 425.781 394.587, 425.518 392.250 L 425.038 388 580.051 388 C 703.182 388, 735.144 387.743, 735.459 386.750 C 735.677 386.063, 736.097 381.675, 736.392 377 C 736.688 372.325, 737.641 361.750, 738.512 353.500 C 741.331 326.797, 741.948 319.612, 741.974 313.211 L 742 306.923 539.405 307.211 C 427.977 307.370, 336.644 307.767, 336.443 308.093" stroke="none" fill="#f3f3f2" fill-rule="evenodd"/><path d="M 184.500 1.132 C 148.549 5.647, 114.591 19.238, 84.645 41.095 C 71.638 50.589, 50.589 71.638, 41.095 84.645 C 18.822 115.161, 5.528 148.780, 1.026 185.974 C 0.343 191.616, 0.007 310.072, 0.020 540.474 C 0.040 907.395, -0.128 893.239, 4.459 915 C 10.199 942.234, 23.307 970.984, 41.095 995.355 C 50.589 1008.362, 71.638 1029.411, 84.645 1038.905 C 114.673 1060.822, 146.345 1073.586, 183 1078.541 C 198.731 1080.668, 881.269 1080.668, 897 1078.541 C 933.655 1073.586, 965.327 1060.822, 995.355 1038.905 C 1008.362 1029.411, 1029.411 1008.362, 1038.905 995.355 C 1060.752 965.422, 1075.652 928.116, 1078.652 895.830 C 1079.005 892.039, 1079.677 888.700, 1080.147 888.409 C 1080.616 888.119, 1081 730.832, 1081 538.882 C 1081 344.657, 1080.619 190.117, 1080.141 190.413 C 1079.669 190.705, 1078.996 187.869, 1078.647 184.111 C 1075.652 151.888, 1060.735 114.554, 1038.905 84.645 C 1029.411 71.638, 1008.362 50.589, 995.355 41.095 C 970.984 23.307, 942.234 10.199, 915 4.459 C 893.212 -0.133, 907.678 0.033, 539 0.146 C 345.895 0.205, 188.390 0.644, 184.500 1.132 M 0.494 540 C 0.494 732.225, 0.609 810.863, 0.750 714.750 C 0.891 618.638, 0.891 461.363, 0.750 365.250 C 0.609 269.138, 0.494 347.775, 0.494 540 M 336.443 308.093 C 336.058 308.715, 338.186 334.958, 342.516 383 C 343.928 398.675, 345.508 416.450, 346.026 422.500 C 346.544 428.550, 347.196 435.525, 347.476 438 C 347.755 440.475, 348.223 445.425, 348.516 449 C 349.383 459.583, 351.774 486.915, 353.939 511 C 355.052 523.375, 356.221 536.425, 356.536 540 C 356.851 543.575, 357.360 547.962, 357.666 549.750 L 358.223 553 498.673 553 L 639.123 553 638.559 557.250 C 637.993 561.523, 637.191 569.775, 632.506 619.500 C 631.107 634.350, 629.633 648.975, 629.231 652 L 628.500 657.500 613.500 661.671 C 605.250 663.965, 585 669.494, 568.500 673.956 L 538.500 682.071 508.500 673.996 C 492 669.555, 471.696 664.088, 463.380 661.847 L 448.261 657.773 447.166 646.137 C 446.564 639.736, 445.553 628.425, 444.919 621 C 444.285 613.575, 443.481 604.350, 443.133 600.500 L 442.500 593.500 402.221 593.239 L 361.942 592.977 362.474 599.239 C 363.511 611.437, 366.014 642.849, 368.033 669 C 369.158 683.575, 370.507 700.450, 371.031 706.500 C 371.554 712.550, 371.987 718.228, 371.991 719.118 C 372 720.816, 371.623 720.695, 409 731.012 C 447.703 741.695, 497.599 755.443, 516.402 760.606 C 527.348 763.611, 536.675 766.299, 537.129 766.580 C 537.836 767.017, 568.978 758.715, 612.500 746.489 C 619.100 744.635, 636.200 739.898, 650.500 735.962 C 699.858 722.376, 704.182 721.152, 704.733 720.600 C 705.352 719.982, 706.668 706.648, 710.471 662.500 C 713.906 622.618, 717.587 580.471, 719.989 553.500 C 721.067 541.400, 722.661 522.950, 723.533 512.500 C 724.404 502.050, 725.766 488.809, 726.559 483.076 C 727.351 477.343, 728 472.280, 728 471.826 C 728 471.372, 661.478 471, 580.173 471 L 432.346 471 430.612 450.750 C 429.658 439.613, 428.230 422.850, 427.438 413.500 C 426.645 404.150, 425.781 394.587, 425.518 392.250 L 425.038 388 580.051 388 C 703.182 388, 735.144 387.743, 735.459 386.750 C 735.677 386.063, 736.097 381.675, 736.392 377 C 736.688 372.325, 737.641 361.750, 738.512 353.500 C 741.331 326.797, 741.948 319.612, 741.974 313.211 L 742 306.923 539.405 307.211 C 427.977 307.370, 336.644 307.767, 336.443 308.093" stroke="none" fill="#fc4e1c" fill-rule="evenodd"/></svg>