<svg xmlns="http://www.w3.org/2000/svg" width="1080" height="1080" viewBox="0 0 1080 1080" version="1.1"><path d="M 785.354 496.091 C 780.324 496.540, 770.649 498.037, 763.854 499.418 C 715.329 509.280, 677.727 535.664, 659.013 572.980 C 649.596 591.760, 645.838 608.435, 645.826 631.500 C 645.791 697.420, 679.624 741.541, 756.107 775.318 C 763.040 778.380, 782.390 786.344, 799.107 793.015 C 858.714 816.805, 874.725 826.641, 883.299 844.741 C 886.323 851.127, 886.500 852.135, 886.500 863 C 886.500 873.828, 886.317 874.880, 883.374 881 C 879.296 889.482, 874.531 894.829, 865.995 900.503 C 852.081 909.753, 834.323 914.230, 811.500 914.243 C 768.354 914.267, 735.939 897.717, 709.613 862.225 C 705.849 857.151, 702.361 853, 701.861 853 C 699.944 853, 613 900.354, 613 901.398 C 613 903.106, 622.549 917.620, 629.514 926.500 C 636.321 935.178, 651.206 950.204, 660.019 957.294 C 695.293 985.670, 742.343 1001.944, 797.839 1004.963 C 874.705 1009.144, 940.588 985.358, 973.156 941.666 C 984.017 927.096, 989.870 914.486, 994.817 895 C 997.313 885.170, 997.483 883.065, 997.491 862 C 997.498 844.251, 997.124 837.705, 995.720 831 C 989.833 802.891, 978.523 782.412, 957.982 762.669 C 932.416 738.096, 904.996 723.138, 832.500 694.214 C 791.687 677.931, 780.364 672.082, 769.118 661.472 C 758.506 651.461, 754.308 640.751, 755.248 626.082 C 755.917 615.643, 758.972 608.220, 765.481 601.215 C 776.190 589.692, 788.696 585, 808.702 585 C 820.903 585, 832.133 586.842, 839.697 590.084 C 851.847 595.293, 863.959 605.841, 873.471 619.500 C 876.153 623.350, 878.666 626.875, 879.056 627.333 C 879.831 628.243, 964.272 578.584, 964.864 576.870 C 965.357 575.442, 957.065 563.407, 948.377 552.939 C 920.430 519.273, 881.787 500.302, 832.500 496.055 C 818.834 494.877, 798.787 494.893, 785.354 496.091 M 440.759 685.750 L 440.477 870.500 438.246 877.471 C 430.322 902.227, 416.265 912.175, 387.028 913.718 C 363.115 914.979, 345.300 907.342, 329.669 889.129 C 327.012 886.033, 321.664 878.663, 317.785 872.750 C 313.905 866.837, 310.304 862, 309.782 862 C 309.260 862, 300.883 866.436, 291.167 871.858 C 234.637 903.404, 222.385 910.298, 221.332 911.157 C 218.616 913.370, 235.090 937.789, 249.392 952.749 C 277.279 981.919, 315.326 999.283, 361.897 1004.094 C 377.683 1005.724, 413.055 1004.674, 427.500 1002.145 C 464.425 995.681, 491.055 983.054, 512.053 962.054 C 530.941 943.163, 541.696 922.203, 548.758 890.519 L 551.436 878.500 551.743 689.750 L 552.050 501 496.546 501 L 441.041 501 440.759 685.750" stroke="none" fill="#040404" fill-rule="evenodd"/><path d="M 173.536 1.139 C 140.496 5.402, 107.100 18.973, 79.729 39.258 C 69.723 46.674, 51.964 63.806, 43.714 74 C 24.104 98.233, 10.370 127.627, 3.297 160.500 L 0.500 173.500 0.500 540 L 0.500 906.500 3.297 919.500 C 11.855 959.274, 28.643 991.275, 55.428 1018.866 C 84.941 1049.269, 118.275 1067.618, 160.500 1076.703 L 173.500 1079.500 540 1079.500 L 906.500 1079.500 919.500 1076.703 C 961.725 1067.618, 995.059 1049.269, 1024.572 1018.866 C 1045.721 997.080, 1060.449 972.853, 1070.055 944.049 C 1074.086 931.960, 1079 909.786, 1079 903.683 C 1079 901.722, 1079.450 899.840, 1080 899.500 C 1080.664 899.090, 1081 777.803, 1081 538.882 C 1081 299.137, 1080.666 179.088, 1080 179.500 C 1079.402 179.869, 1079 178.636, 1079 176.435 C 1079 170.228, 1074.119 148.139, 1070.055 135.951 C 1063.268 115.600, 1053.638 97.129, 1040.742 79.729 C 1033.326 69.723, 1016.194 51.964, 1006 43.714 C 982.006 24.297, 952.931 10.640, 920 3.316 L 907.500 0.536 544 0.389 C 333.886 0.303, 177.561 0.620, 173.536 1.139 M 0.495 540 C 0.495 738.275, 0.609 819.387, 0.750 720.250 C 0.890 621.112, 0.890 458.887, 0.750 359.750 C 0.609 260.612, 0.495 341.725, 0.495 540 M 785.354 496.091 C 780.324 496.540, 770.649 498.037, 763.854 499.418 C 715.329 509.280, 677.727 535.664, 659.013 572.980 C 649.596 591.760, 645.838 608.435, 645.826 631.500 C 645.791 697.420, 679.624 741.541, 756.107 775.318 C 763.040 778.380, 782.390 786.344, 799.107 793.015 C 858.714 816.805, 874.725 826.641, 883.299 844.741 C 886.323 851.127, 886.500 852.135, 886.500 863 C 886.500 873.828, 886.317 874.880, 883.374 881 C 879.296 889.482, 874.531 894.829, 865.995 900.503 C 852.081 909.753, 834.323 914.230, 811.500 914.243 C 768.354 914.267, 735.939 897.717, 709.613 862.225 C 705.849 857.151, 702.361 853, 701.861 853 C 699.944 853, 613 900.354, 613 901.398 C 613 903.106, 622.549 917.620, 629.514 926.500 C 636.321 935.178, 651.206 950.204, 660.019 957.294 C 695.293 985.670, 742.343 1001.944, 797.839 1004.963 C 874.705 1009.144, 940.588 985.358, 973.156 941.666 C 984.017 927.096, 989.870 914.486, 994.817 895 C 997.313 885.170, 997.483 883.065, 997.491 862 C 997.498 844.251, 997.124 837.705, 995.720 831 C 989.833 802.891, 978.523 782.412, 957.982 762.669 C 932.416 738.096, 904.996 723.138, 832.500 694.214 C 791.687 677.931, 780.364 672.082, 769.118 661.472 C 758.506 651.461, 754.308 640.751, 755.248 626.082 C 755.917 615.643, 758.972 608.220, 765.481 601.215 C 776.190 589.692, 788.696 585, 808.702 585 C 820.903 585, 832.133 586.842, 839.697 590.084 C 851.847 595.293, 863.959 605.841, 873.471 619.500 C 876.153 623.350, 878.666 626.875, 879.056 627.333 C 879.831 628.243, 964.272 578.584, 964.864 576.870 C 965.357 575.442, 957.065 563.407, 948.377 552.939 C 920.430 519.273, 881.787 500.302, 832.500 496.055 C 818.834 494.877, 798.787 494.893, 785.354 496.091 M 440.759 685.750 L 440.477 870.500 438.246 877.471 C 430.322 902.227, 416.265 912.175, 387.028 913.718 C 363.115 914.979, 345.300 907.342, 329.669 889.129 C 327.012 886.033, 321.664 878.663, 317.785 872.750 C 313.905 866.837, 310.304 862, 309.782 862 C 309.260 862, 300.883 866.436, 291.167 871.858 C 234.637 903.404, 222.385 910.298, 221.332 911.157 C 218.616 913.370, 235.090 937.789, 249.392 952.749 C 277.279 981.919, 315.326 999.283, 361.897 1004.094 C 377.683 1005.724, 413.055 1004.674, 427.500 1002.145 C 464.425 995.681, 491.055 983.054, 512.053 962.054 C 530.941 943.163, 541.696 922.203, 548.758 890.519 L 551.436 878.500 551.743 689.750 L 552.050 501 496.546 501 L 441.041 501 440.759 685.750" stroke="none" fill="#fbe304" fill-rule="evenodd"/></svg>