<?xml version="1.0" encoding="UTF-8" standalone="no"?>
<svg
   xmlns:dc="http://purl.org/dc/elements/1.1/"
   xmlns:cc="http://creativecommons.org/ns#"
   xmlns:rdf="http://www.w3.org/1999/02/22-rdf-syntax-ns#"
   xmlns:svg="http://www.w3.org/2000/svg"
   xmlns="http://www.w3.org/2000/svg"
   viewBox="0 0 853.33331 640"
   height="640"
   width="853.33331"
   xml:space="preserve"
   id="svg2"
   version="1.1"><metadata
     id="metadata8"><rdf:RDF><cc:Work
         rdf:about=""><dc:format>image/svg+xml</dc:format><dc:type
           rdf:resource="http://purl.org/dc/dcmitype/StillImage" /></cc:Work></rdf:RDF></metadata><defs
     id="defs6"><clipPath
       id="clipPath18"
       clipPathUnits="userSpaceOnUse"><path
         id="path16"
         d="M 0,480 H 640 V 0 H 0 Z" /></clipPath></defs><g
     transform="matrix(1.3333333,0,0,-1.3333333,0,640)"
     id="g10"><g
       id="g12"><g
         clip-path="url(#clipPath18)"
         id="g14"><g
           transform="translate(291.7427,392.5381)"
           id="g20"><path
             id="path22"
             style="fill:#ffffff;fill-opacity:1;fill-rule:nonzero;stroke:none"
             d="m 0,0 c 36.85,0 73.69,0.043 110.541,-0.011 -0.258,-10.342 0.429,-20.908 -0.323,-31.099 -22.306,-0.14 -44.634,-0.011 -66.95,-0.054 0.043,-13.814 -0.086,-27.616 0.065,-41.419 18.952,0.075 37.893,0.021 56.844,0.021 v -30.615 c -18.972,-0.021 -37.935,0 -56.909,-0.011 v -69.874 c -14.426,0 -28.842,-0.01 -43.268,0.011 z" /></g><g
           transform="translate(259.8911,112.957)"
           id="g24"><path
             id="path26"
             style="fill:#ffffff;fill-opacity:1;fill-rule:nonzero;stroke:none"
             d="m 0,0 c 7.611,6.912 19.049,7.901 28.616,5.171 5.945,-1.656 11.803,-6.021 12.921,-12.416 0.43,-3.731 0.828,-8.02 -1.526,-11.244 -2.386,-3.462 -6.428,-5.279 -10.395,-6.268 5.869,-1.129 12.169,-4.461 13.845,-10.632 1.108,-5.976 0.882,-12.942 -3.44,-17.673 -5.159,-5.858 -13.286,-7.9 -20.822,-8.104 -6.686,0.118 -13.824,1.225 -19.178,5.558 -4.138,3.203 -6.148,8.309 -7.202,13.275 5.106,0.474 10.244,0.097 15.372,0.247 1.205,-7.535 11.169,-9.707 16.705,-5.504 3.269,2.709 3.118,7.687 2.129,11.417 -2.849,5.826 -10.395,5.127 -15.824,5.095 -0.011,3.687 -0.011,7.364 0,11.04 3.688,0.086 7.568,-0.462 11.051,1.064 4.096,1.957 4.322,7.794 2.419,11.341 C 20.263,-2.376 9.879,-4.902 9.438,-12.212 4.289,-12.233 -0.86,-12.266 -6.009,-12.18 -5.235,-7.654 -3.526,-3.106 0,0" /></g><g
           transform="translate(327.4971,79.5039)"
           id="g28"><path
             id="path30"
             style="fill:#ffffff;fill-opacity:1;fill-rule:nonzero;stroke:none"
             d="m 0,0 c 0.215,-4.085 -0.871,-8.622 1.43,-12.319 3.117,-4.203 9.76,-4.354 13.824,-1.516 3.654,3.139 3.278,8.546 2.773,12.878 C 17.5,2.935 13.254,5.095 9.621,4.525 5.891,4.482 2.611,2.536 0,0 m -5.16,36.624 c 8.148,4.343 18.221,4.235 26.788,1.161 6.665,-2.408 11.233,-8.986 11.362,-16.05 -4.74,0 -9.491,-0.053 -14.232,0.033 C 17.779,29.271 7.127,30.422 2.396,25.853 -1.118,21.617 0.247,15.78 -0.021,10.738 8.718,19.069 25.305,17.629 31.69,7.073 34.582,2.472 34.636,-3.204 34.291,-8.449 33.765,-16.018 28.325,-22.672 21.37,-25.424 c -8.191,-3.224 -17.759,-3.16 -25.81,0.463 -6.762,3.064 -11.32,10.083 -11.631,17.457 -0.14,8.32 -0.054,16.63 -0.043,24.95 0.086,7.687 4.074,15.459 10.954,19.178" /></g><g
           transform="translate(392.2002,107.3564)"
           id="g32"><path
             id="path34"
             style="fill:#ffffff;fill-opacity:1;fill-rule:nonzero;stroke:none"
             d="m 0,0 c -3.806,-1.269 -5.418,-5.504 -5.526,-9.213 -0.161,-7.557 -0.011,-15.125 -0.076,-22.692 -0.021,-3.645 0.56,-7.945 3.774,-10.213 4.407,-2.666 11.771,-1.849 13.566,3.634 1.763,5.944 0.634,12.244 0.947,18.349 -0.302,5.579 0.977,11.6 -1.559,16.823 C 9.083,0.623 3.848,1.408 0,0 m -3.892,11.352 c 8.041,1.515 17.006,0.946 24.004,-3.656 6.214,-4.181 8.825,-11.974 8.707,-19.209 -0.118,-7.923 0.195,-15.867 -0.161,-23.79 -0.494,-7.771 -5.278,-15.372 -12.76,-18.092 -8.975,-3.375 -19.736,-3.095 -28.067,1.892 -6.321,3.816 -9.471,11.256 -9.535,18.437 -0.054,6.837 0.021,13.684 -0.032,20.532 -0.054,5.59 0.956,11.502 4.493,15.995 3.235,4.214 8.213,6.815 13.351,7.891" /></g><g
           transform="translate(291.7427,392.5381)"
           id="g36"><path
             id="path38"
             style="fill:#ff6b00;fill-opacity:1;fill-rule:nonzero;stroke:none"
             d="m 0,0 v -173.051 c 14.426,-0.021 28.842,-0.011 43.268,-0.011 v 69.874 c 18.974,0.011 37.937,-0.01 56.909,0.011 v 30.615 c -18.951,0 -37.892,0.054 -56.844,-0.021 -0.151,13.803 -0.022,27.605 -0.065,41.419 22.316,0.043 44.644,-0.086 66.95,0.054 0.752,10.191 0.065,20.757 0.323,31.099 C 73.69,0.043 36.85,0 0,0 m -113.174,69.594 c 3.042,-0.269 6.085,-0.226 9.137,-0.194 94.266,0 188.531,-0.01 282.806,0 3.902,-0.053 7.869,0.237 11.718,-0.666 9.342,-2.526 16.286,-11.771 16.168,-21.457 0.032,-15.694 0,-31.378 0.011,-47.073 -0.022,-81.064 0.032,-162.118 -0.022,-243.183 -106.703,-0.118 -213.395,0.098 -320.086,-0.107 -0.011,79.27 0,158.528 -0.011,237.786 1.128,17.866 0.354,35.797 0.58,53.696 -0.097,6.955 0.269,13.92 -0.279,20.865 z" /></g><g
           transform="translate(168.8511,456.5635)"
           id="g40"><path
             id="path42"
             style="fill:#ff9447;fill-opacity:1;fill-rule:nonzero;stroke:none"
             d="m 0,0 c 3.214,1.795 6.149,4.214 9.739,5.235 0.549,-6.944 0.183,-13.91 0.28,-20.865 -0.226,-17.898 0.548,-35.829 -0.581,-53.695 0.011,-79.258 0,-158.517 0.011,-237.786 -10.32,-5.988 -20.446,-12.33 -30.723,-18.414 -12.244,-7.428 -24.531,-14.803 -36.796,-22.209 0.01,104.187 0.075,208.374 -0.033,312.561 C -38.86,-23.251 -19.35,-11.75 0,0" /></g><g
           transform="translate(388.3086,118.708)"
           id="g44"><path
             id="path46"
             style="fill:#923b00;fill-opacity:1;fill-rule:nonzero;stroke:none"
             d="m 0,0 c -5.139,-1.075 -10.116,-3.677 -13.352,-7.891 -3.537,-4.493 -4.546,-10.405 -4.493,-15.995 0.054,-6.847 -0.021,-13.695 0.033,-20.532 0.064,-7.181 3.213,-14.62 9.535,-18.436 8.331,-4.988 19.091,-5.267 28.067,-1.892 7.481,2.72 12.266,10.32 12.76,18.092 0.355,7.923 0.043,15.867 0.161,23.79 0.118,7.234 -2.493,15.027 -8.707,19.209 C 17.006,0.946 8.041,1.516 0,0 m -65.972,-2.58 c -6.88,-3.719 -10.868,-11.491 -10.954,-19.178 -0.011,-8.32 -0.096,-16.63 0.043,-24.95 0.312,-7.374 4.87,-14.394 11.631,-17.457 8.052,-3.623 17.619,-3.688 25.811,-0.463 6.955,2.752 12.394,9.406 12.92,16.975 0.345,5.245 0.292,10.921 -2.6,15.522 -6.386,10.556 -22.973,11.996 -31.712,3.665 0.269,5.042 -1.097,10.879 2.418,15.114 4.73,4.57 15.383,3.419 16.361,-4.085 4.741,-0.085 9.492,-0.032 14.233,-0.032 -0.129,7.064 -4.698,13.642 -11.363,16.05 -8.567,3.074 -18.639,3.182 -26.788,-1.161 m -62.445,-3.171 c -3.526,-3.106 -5.236,-7.654 -6.01,-12.18 5.15,-0.086 10.299,-0.053 15.448,-0.032 0.44,7.31 10.825,9.836 15.232,4.579 1.903,-3.547 1.677,-9.384 -2.419,-11.341 -3.482,-1.526 -7.363,-0.978 -11.05,-1.064 -0.011,-3.676 -0.011,-7.353 0,-11.04 5.428,0.032 12.975,0.731 15.823,-5.095 0.99,-3.73 1.14,-8.708 -2.128,-11.417 -5.536,-4.203 -15.501,-2.031 -16.705,5.504 -5.128,-0.15 -10.266,0.227 -15.372,-0.247 1.053,-4.966 3.063,-10.072 7.202,-13.275 5.354,-4.333 12.491,-5.44 19.178,-5.558 7.535,0.204 15.662,2.246 20.822,8.104 4.321,4.731 4.547,11.697 3.44,17.673 -1.677,6.171 -7.976,9.503 -13.846,10.632 3.967,0.989 8.009,2.806 10.395,6.268 2.355,3.224 1.957,7.513 1.527,11.244 -1.118,6.395 -6.977,10.76 -12.921,12.416 -9.568,2.73 -21.006,1.741 -28.616,-5.171 M 110.1,274.034 c 10.276,0.011 20.552,0.032 30.84,-0.011 0,-124.956 0.011,-249.911 -0.01,-374.856 -119.957,0 -239.904,-0.021 -359.861,0.011 -11.835,-0.505 -22.08,10.449 -21.919,22.058 0.022,30.358 -0.214,60.737 0.119,91.094 10.276,6.084 20.403,12.427 30.723,18.414 106.691,0.205 213.383,-0.011 320.086,0.108 0.054,81.064 0,162.118 0.022,243.182" /></g><g
           transform="translate(392.2002,107.3564)"
           id="g48"><path
             id="path50"
             style="fill:#923b00;fill-opacity:1;fill-rule:nonzero;stroke:none"
             d="m 0,0 c 3.848,1.408 9.083,0.623 11.126,-3.312 2.536,-5.223 1.257,-11.244 1.559,-16.823 -0.313,-6.105 0.816,-12.405 -0.947,-18.349 -1.795,-5.483 -9.159,-6.3 -13.566,-3.634 -3.214,2.268 -3.795,6.568 -3.774,10.213 0.065,7.567 -0.085,15.135 0.076,22.692 C -5.418,-5.504 -3.806,-1.269 0,0" /></g><g
           transform="translate(327.4971,79.5039)"
           id="g52"><path
             id="path54"
             style="fill:#923b00;fill-opacity:1;fill-rule:nonzero;stroke:none"
             d="m 0,0 c 2.611,2.536 5.891,4.482 9.621,4.525 3.633,0.57 7.879,-1.59 8.406,-5.482 0.505,-4.332 0.881,-9.739 -2.773,-12.878 C 11.19,-16.673 4.547,-16.522 1.43,-12.319 -0.871,-8.622 0.215,-4.085 0,0" /></g></g></g></g></svg>